#N canvas 412 336 926 235 10;
#X obj 12 63 osc~ 0.05;
#X obj 12 84 *~ 10;
#X obj 12 105 +~ 11;
#X obj 102 105 +~ 21;
#X obj 102 63 osc~ 0.08;
#X obj 192 83 *~ 10;
#X obj 192 63 osc~ 0.13;
#X obj 192 105 +~ 13;
#X obj 282 63 osc~ 0.21;
#X obj 282 105 +~ 34;
#X obj 372 105 +~ 55;
#X obj 372 63 osc~ 0.03;
#X obj 462 105 +~ 87;
#X obj 552 63 osc~ 0.12;
#X obj 552 105 +~ 67;
#X obj 12 126 vd~ \$0-chorus;
#X obj 12 33 delwrite~ \$0-chorus 500;
#X obj 12 12 inlet~;
#X obj 102 126 vd~ \$0-chorus;
#X obj 192 126 vd~ \$0-chorus;
#X obj 282 126 vd~ \$0-chorus;
#X obj 372 126 vd~ \$0-chorus;
#X obj 462 126 vd~ \$0-chorus;
#X obj 552 126 vd~ \$0-chorus;
#X obj 12 183 outlet~;
#X obj 102 84 *~ 20;
#X obj 282 84 *~ 30;
#X obj 372 84 *~ 50;
#X obj 12 161 /~ 2;
#X obj 552 84 *~ 10;
#X obj 462 63 osc~ 8;
#X obj 462 84 *~ 1;
#X obj 472 183 outlet~;
#X obj 472 161 /~ 2;
#X connect 0 0 1 0;
#X connect 1 0 2 0;
#X connect 2 0 15 0;
#X connect 3 0 18 0;
#X connect 4 0 25 0;
#X connect 5 0 7 0;
#X connect 6 0 5 0;
#X connect 7 0 19 0;
#X connect 8 0 26 0;
#X connect 9 0 20 0;
#X connect 10 0 21 0;
#X connect 11 0 27 0;
#X connect 12 0 22 0;
#X connect 13 0 29 0;
#X connect 14 0 23 0;
#X connect 15 0 28 0;
#X connect 17 0 16 0;
#X connect 18 0 28 0;
#X connect 19 0 28 0;
#X connect 20 0 28 0;
#X connect 21 0 33 0;
#X connect 22 0 33 0;
#X connect 23 0 33 0;
#X connect 25 0 3 0;
#X connect 26 0 9 0;
#X connect 27 0 10 0;
#X connect 28 0 24 0;
#X connect 29 0 14 0;
#X connect 30 0 31 0;
#X connect 31 0 12 0;
#X connect 33 0 32 0;
