#N canvas 85 22 979 641 10;
#X obj 6 12 inlet~;
#X obj 6 54 delwrite~ \$0-granular 4000;
#X obj 11 98 loadbang;
#X msg 11 119 1;
#X obj 11 203 s \$0-clock;
#X obj 177 8 r \$0-clock;
#X obj 177 29 == 0;
#X obj 177 50 sel 1;
#X obj 177 125 random 4000;
#X obj 317 171 vline~;
#X obj 177 187 *~;
#X obj 173 588 outlet~;
#X obj 173 504 catch~ \$0-output;
#X obj 11 161 i;
#X obj 11 182 % 6;
#X obj 41 161 + 1;
#X obj 177 166 delread4~ \$0-granular;
#X obj 177 146 - 2000;
#X obj 317 66 random 24;
#X obj 317 108 + 100;
#X obj 317 129 dbtorms;
#X obj 317 87 * -1;
#X msg 317 150 \$1 50 \, 0 50 50;
#X obj 177 208 throw~ \$0-output;
#X obj 427 8 r \$0-clock;
#X obj 427 50 sel 1;
#X obj 427 125 random 4000;
#X obj 567 171 vline~;
#X obj 427 187 *~;
#X obj 427 166 delread4~ \$0-granular;
#X obj 427 146 - 2000;
#X obj 567 66 random 24;
#X obj 567 108 + 100;
#X obj 567 129 dbtorms;
#X obj 567 87 * -1;
#X msg 567 150 \$1 50 \, 0 50 50;
#X obj 427 208 throw~ \$0-output;
#X obj 427 29 == 1;
#X obj 667 8 r \$0-clock;
#X obj 667 50 sel 1;
#X obj 667 125 random 4000;
#X obj 807 171 vline~;
#X obj 667 187 *~;
#X obj 667 166 delread4~ \$0-granular;
#X obj 667 146 - 2000;
#X obj 807 66 random 24;
#X obj 807 108 + 100;
#X obj 807 129 dbtorms;
#X obj 807 87 * -1;
#X msg 807 150 \$1 50 \, 0 50 50;
#X obj 667 208 throw~ \$0-output;
#X obj 667 29 == 2;
#X obj 177 258 r \$0-clock;
#X obj 177 300 sel 1;
#X obj 177 375 random 4000;
#X obj 317 421 vline~;
#X obj 177 437 *~;
#X obj 177 416 delread4~ \$0-granular;
#X obj 177 396 - 2000;
#X obj 317 316 random 24;
#X obj 317 358 + 100;
#X obj 317 379 dbtorms;
#X obj 317 337 * -1;
#X msg 317 400 \$1 50 \, 0 50 50;
#X obj 177 458 throw~ \$0-output;
#X obj 427 258 r \$0-clock;
#X obj 427 300 sel 1;
#X obj 427 375 random 4000;
#X obj 567 421 vline~;
#X obj 427 437 *~;
#X obj 427 416 delread4~ \$0-granular;
#X obj 427 396 - 2000;
#X obj 567 316 random 24;
#X obj 567 358 + 100;
#X obj 567 379 dbtorms;
#X obj 567 337 * -1;
#X msg 567 400 \$1 50 \, 0 50 50;
#X obj 427 458 throw~ \$0-output;
#X obj 667 258 r \$0-clock;
#X obj 667 300 sel 1;
#X obj 667 375 random 4000;
#X obj 807 421 vline~;
#X obj 667 437 *~;
#X obj 667 416 delread4~ \$0-granular;
#X obj 667 396 - 2000;
#X obj 807 316 random 24;
#X obj 807 358 + 100;
#X obj 807 379 dbtorms;
#X obj 807 337 * -1;
#X msg 807 400 \$1 50 \, 0 50 50;
#X obj 667 458 throw~ \$0-output;
#X obj 177 279 == 3;
#X obj 427 279 == 4;
#X obj 667 279 == 5;
#X obj 11 140 metro 25;
#X obj 6 33 +~;
#X obj 173 525 lop~ 2000;
#X obj 173 546 lop~ 4000;
#X obj 173 567 *~ 16;
#X connect 0 0 95 0;
#X connect 2 0 3 0;
#X connect 3 0 94 0;
#X connect 5 0 6 0;
#X connect 6 0 7 0;
#X connect 7 0 8 0;
#X connect 7 0 18 0;
#X connect 8 0 17 0;
#X connect 9 0 10 1;
#X connect 10 0 23 0;
#X connect 12 0 96 0;
#X connect 13 0 14 0;
#X connect 14 0 15 0;
#X connect 14 0 4 0;
#X connect 15 0 13 1;
#X connect 16 0 10 0;
#X connect 17 0 16 0;
#X connect 18 0 21 0;
#X connect 19 0 20 0;
#X connect 20 0 22 0;
#X connect 21 0 19 0;
#X connect 22 0 9 0;
#X connect 24 0 37 0;
#X connect 25 0 26 0;
#X connect 25 0 31 0;
#X connect 26 0 30 0;
#X connect 27 0 28 1;
#X connect 28 0 36 0;
#X connect 29 0 28 0;
#X connect 30 0 29 0;
#X connect 31 0 34 0;
#X connect 32 0 33 0;
#X connect 33 0 35 0;
#X connect 34 0 32 0;
#X connect 35 0 27 0;
#X connect 37 0 25 0;
#X connect 38 0 51 0;
#X connect 39 0 40 0;
#X connect 39 0 45 0;
#X connect 40 0 44 0;
#X connect 41 0 42 1;
#X connect 42 0 50 0;
#X connect 43 0 42 0;
#X connect 44 0 43 0;
#X connect 45 0 48 0;
#X connect 46 0 47 0;
#X connect 47 0 49 0;
#X connect 48 0 46 0;
#X connect 49 0 41 0;
#X connect 51 0 39 0;
#X connect 52 0 91 0;
#X connect 53 0 54 0;
#X connect 53 0 59 0;
#X connect 54 0 58 0;
#X connect 55 0 56 1;
#X connect 56 0 64 0;
#X connect 57 0 56 0;
#X connect 58 0 57 0;
#X connect 59 0 62 0;
#X connect 60 0 61 0;
#X connect 61 0 63 0;
#X connect 62 0 60 0;
#X connect 63 0 55 0;
#X connect 65 0 92 0;
#X connect 66 0 67 0;
#X connect 66 0 72 0;
#X connect 67 0 71 0;
#X connect 68 0 69 1;
#X connect 69 0 77 0;
#X connect 70 0 69 0;
#X connect 71 0 70 0;
#X connect 72 0 75 0;
#X connect 73 0 74 0;
#X connect 74 0 76 0;
#X connect 75 0 73 0;
#X connect 76 0 68 0;
#X connect 78 0 93 0;
#X connect 79 0 80 0;
#X connect 79 0 85 0;
#X connect 80 0 84 0;
#X connect 81 0 82 1;
#X connect 82 0 90 0;
#X connect 83 0 82 0;
#X connect 84 0 83 0;
#X connect 85 0 88 0;
#X connect 86 0 87 0;
#X connect 87 0 89 0;
#X connect 88 0 86 0;
#X connect 89 0 81 0;
#X connect 91 0 53 0;
#X connect 92 0 66 0;
#X connect 93 0 79 0;
#X connect 94 0 13 0;
#X connect 95 0 1 0;
#X connect 96 0 97 0;
#X connect 97 0 98 0;
#X connect 98 0 11 0;
