#N canvas 334 34 405 568 10;
#X obj 137 308 r \$0-s-slider;
#X obj 137 420 s \$0-r-canvas;
#X obj 175 144 savestate;
#X obj 254 144 r \$0-s-slider;
#X obj 239 167 f;
#X obj 121 167 loadbang;
#X obj 121 188 f;
#X obj 121 209 s \$0-r-slider;
#X msg 137 399 vis_size 14 \$1;
#X obj 40 42 vsl 20 128 0 127 0 0 \$0-s-slider \$0-r-slider empty 0 -9 0 10 #000000 #ffffff #000000 0 1;
#X obj 43 43 cnv 1 14 126 \$0-s-canvas \$0-r-canvas empty 20 12 0 14 #ff0000 #404040 0;
#X msg 255 332 127 \$1;
#X obj 255 353 -;
#X obj 255 425 s \$0-r-canvas;
#X msg 255 404 pos 43 \$1;
#X obj 255 374 + 42;
#X obj 40 178 outlet;
#X obj 275 211 loadbang;
#X obj 275 253 list prepend color;
#X obj 275 274 list trim;
#X obj 275 295 s \$0-r-canvas;
#X obj 178 29 r \$1;
#X obj 275 232 symbol \$2;
#X obj 178 50 s \$0-r-slider;
#X connect 0 0 8 0;
#X connect 0 0 11 0;
#X connect 2 0 6 1;
#X connect 2 1 4 0;
#X connect 3 0 4 1;
#X connect 4 0 2 0;
#X connect 5 0 6 0;
#X connect 6 0 7 0;
#X connect 8 0 1 0;
#X connect 9 0 16 0;
#X connect 11 0 12 0;
#X connect 12 0 15 0;
#X connect 14 0 13 0;
#X connect 15 0 14 0;
#X connect 17 0 22 0;
#X connect 18 0 19 0;
#X connect 19 0 20 0;
#X connect 21 0 23 0;
#X connect 22 0 18 0;
#X coords 0 -1 1 1 20 133 2 40 40;
